<?xml version="1.0" encoding="UTF-8"?>
<svg id="Layer_1" data-name="Layer 1" xmlns="http://www.w3.org/2000/svg" viewBox="0 0 512 512">
  <defs>
    <style>
      .cls-1 {
        stroke: #000;
      }

      .cls-1, .cls-2 {
        fill: none;
        stroke-linecap: round;
        stroke-linejoin: round;
        stroke-width: 10px;
      }

      .cls-2 {
        stroke: #fff;
      }
    </style>
  </defs>
  <path class="cls-1" d="M381.7,147.48c12.72,1.24,22.54,11.75,22.89,24.53l7.42,264.81c0,23.84-74.3,43.17-156.02,43.17s-156.02-19.33-156.02-43.17l7.42-264.81c.36-12.78,10.17-23.29,22.89-24.53l50.12-4.88c50.27-4.9,100.9-4.9,151.17,0l50.12,4.88Z"/>
  <path class="cls-1" d="M195.99,141.28l9.66-64.29c2.9-25.59,24.55-44.99,50.34-44.99,12.88,0,24.79,4.87,33.76,12.92,9.01,8.05,15.17,19.27,16.62,32.07l9.62,64.29"/>
  <path class="cls-1" d="M334.46,210.29c0,31.16-35.13,56.41-78.46,56.41s-78.46-25.26-78.46-56.41"/>
  <g>
    <path class="cls-2" d="M221.66,308.22l2.02,6.65c7.7,25.27,25.93,45.98,50.03,56.81l.28.13-.28.13c-24.09,10.83-42.33,31.54-50.03,56.81l-2.02,6.65-2.02-6.65c-7.7-25.27-25.93-45.98-50.03-56.81l-.28-.13.28-.13c24.09-10.83,42.33-31.54,50.03-56.81l2.02-6.65Z"/>
    <g>
      <line class="cls-2" x1="323.32" y1="293.11" x2="323.32" y2="331.83"/>
      <line class="cls-2" x1="342.68" y1="312.47" x2="303.96" y2="312.47"/>
    </g>
  </g>
</svg>