<?xml version="1.0" encoding="UTF-8"?>
<svg id="Layer_1" data-name="Layer 1" xmlns="http://www.w3.org/2000/svg" viewBox="0 0 512 512">
  <defs>
    <style>
      .cls-1 {
        fill: none;
        stroke: #000;
        stroke-linecap: round;
        stroke-linejoin: round;
        stroke-width: 10px;
      }
    </style>
  </defs>
  <path class="cls-1" d="M370.95,404.15c11.23-21.21,1.74-54.03,1.74-54.03,6.07,14.85,18.73,29.6,23.65,37.72,1.31,2.15,4.44,2.1,5.69-.08,6.34-11.04,3.7-29.71,3.7-29.71,2.57,5.34,5.29,9.95,8.17,13.53,12.52,15.41,30.43,24.08,37.15,7.55,7.95-19.49-30.7-54.85-39.31-128.16-.7-5.95,1.07-11.78,4.27-16.84.92-1.46,1.66-3.78,1.91-7.42.83-12.48,0-41.49-5.55-53.85-5.54-12.34-13.32-20.94-19.29-23.44-2.08-9.3-5.54-17.76-14.01-23.99-4.59-5.85-14.57-23.87-24.98-31.36-10.68-9.59-21.37-21.52-25.25-23.04-4.04-5.41-2.09-12.76-16.52-22.89-1.16-1.01-2.19-1.9-3.11-2.68-4.01-3.43-8.95-5.61-14.2-6.11-4.01-.38-9.08-1.21-13.36-3-5.41-2.27-12.14-4.98-20.47-4.2-3.45.33-6.92.33-10.38,0-8.32-.78-15.05,1.93-20.47,4.2-4.28,1.79-9.34,2.62-13.36,3-5.25.5-10.19,2.68-14.2,6.11-.91.78-1.95,1.67-3.11,2.68-14.44,10.13-12.48,17.48-16.52,22.89-3.88,1.52-14.57,13.46-25.25,23.04-10.41,7.49-20.38,25.52-24.98,31.36-8.46,6.24-11.93,14.69-14.01,23.99-5.98,2.51-13.75,11.1-19.29,23.44-5.55,12.36-6.39,41.37-5.55,53.85.24,3.64.98,5.96,1.91,7.42,3.2,5.06,4.97,10.9,4.27,16.84-8.61,73.3-47.26,108.67-39.31,128.16,6.73,16.53,24.63,7.86,37.15-7.55,2.88-3.58,5.6-8.18,8.17-13.53,0,0-2.63,18.66,3.7,29.71,1.25,2.18,4.38,2.23,5.69.08,4.92-8.11,17.58-22.87,23.65-37.72,0,0-9.5,32.83,1.74,54.03.54,1.03,2.04.96,2.45-.13,2.94-7.83,14.2-23.75,20.2-37.09.51,12.82,6.79,27.11,6.79,27.11-4.52,2.2-8.91,4.72-11.09,7.13-3,3.9-1.64,10.29,5.13,17.32,0,0-28.35,18.58-35.76,30-7.4,11.41-7.9,22.08-7.9,22.08,0,0,4.01,7.65,31,4.89,21.08-1.42,33.13,3.56,36.76,1.85,3.04-1.44,6.52-1.66,9.86-1.28.75.08,1.52.14,2.32.18,10.61.51,31.4,5.24,36.61,1.96,2.04-1.28,4.51-1.64,6.69-.6,2.71,1.29,5.64,2.49,7.17,2.43.96-.04,2.45-.42,4.11-1,.41-.14.86-.14,1.27,0,1.66.58,3.15.95,4.11,1,1.52.06,4.46-1.13,7.17-2.43,2.18-1.04,4.65-.68,6.69.6,5.2,3.29,26-1.44,36.61-1.96.79-.04,1.56-.1,2.32-.18,3.34-.38,6.82-.16,9.86,1.28,3.63,1.7,15.68-3.28,36.76-1.85,26.99,2.76,31-4.89,31-4.89,0,0-.5-10.67-7.9-22.08-7.41-11.42-35.76-30-35.76-30,6.78-7.03,8.13-13.42,5.13-17.32-2.18-2.41-6.57-4.93-11.09-7.13,0,0,6.28-14.29,6.79-27.11,5.99,13.33,17.25,29.25,20.19,37.08.41,1.09,1.91,1.16,2.45.13Z"/>
</svg>